<?xml version="1.0" encoding="utf-8"?>
<!-- Generator: Adobe Illustrator 26.0.1, SVG Export Plug-In . SVG Version: 6.00 Build 0)  -->
<svg version="1.1" id="Calque_1" xmlns="http://www.w3.org/2000/svg" xmlns:xlink="http://www.w3.org/1999/xlink" x="0px" y="0px"
	 viewBox="0 0 14.17 14.17" style="enable-background:new 0 0 14.17 14.17;" xml:space="preserve">
<style type="text/css">
	.st0{fill:#FFED00;}
	.st1{fill:#BE1622;}
	.st2{font-family:'AdobeArabic-Regular';}
	.st3{font-size:0.3675px;}
</style>
<g>
	<g>
		<path class="st0" d="M8,7.28c0,0.14-0.02,0.28-0.08,0.41c-0.06,0.15-0.15,0.29-0.28,0.4C7.51,8.21,7.36,8.3,7.18,8.34
			C7.05,8.37,6.92,8.38,6.79,8.36c-0.12-0.01-0.24-0.05-0.35-0.1C6.25,8.18,6.1,8.04,5.99,7.86C5.91,7.73,5.86,7.58,5.84,7.43
			c-0.02-0.18,0-0.36,0.07-0.54C5.95,6.79,6,6.7,6.07,6.62c0.06-0.08,0.13-0.14,0.21-0.2c0.12-0.09,0.25-0.15,0.4-0.18
			c0.1-0.02,0.2-0.03,0.3-0.02C7.16,6.22,7.34,6.28,7.5,6.38c0.18,0.11,0.31,0.26,0.4,0.45C7.97,6.97,8,7.12,8,7.28z M7.8,7.16
			c0-0.03,0-0.07-0.01-0.1C7.78,6.93,7.73,6.82,7.66,6.71C7.59,6.6,7.49,6.52,7.37,6.45C7.21,6.36,7.03,6.32,6.84,6.34
			C6.68,6.35,6.54,6.4,6.41,6.48C6.32,6.54,6.25,6.6,6.19,6.68c-0.13,0.18-0.18,0.38-0.15,0.6c0.03,0.19,0.13,0.35,0.27,0.48
			c0.1,0.08,0.21,0.14,0.33,0.18c0.14,0.04,0.28,0.05,0.43,0.02c0.13-0.02,0.25-0.07,0.36-0.15c0.1-0.07,0.18-0.16,0.25-0.26
			C7.76,7.43,7.8,7.3,7.8,7.16z M7.52,7.89c0.02,0.02,0.04,0.05,0.06,0.07c-0.01,0-0.02,0-0.02,0C7.53,7.95,7.5,7.95,7.47,7.94
			c0,0-0.01,0-0.01,0C7.45,7.94,7.44,7.95,7.43,7.96C7.46,8,7.5,8.04,7.53,8.09c0.01-0.01,0.02-0.02,0.03-0.02
			C7.54,8.04,7.52,8.01,7.5,7.98c0.01,0,0.01,0,0.01,0C7.54,7.99,7.57,8,7.6,8.01c0.02,0.01,0.03,0,0.04-0.02
			c-0.03-0.04-0.06-0.08-0.1-0.12C7.54,7.87,7.53,7.88,7.52,7.89z M6.29,7.92c0.02,0.02,0.04,0.03,0.06,0.05
			c0.01-0.01,0.01-0.02,0.02-0.03C6.35,7.91,6.32,7.89,6.28,7.87c-0.03,0.04-0.07,0.08-0.1,0.12c0.03,0.03,0.07,0.05,0.1,0.08
			C6.29,8.06,6.29,8.05,6.3,8.04C6.28,8.03,6.26,8.01,6.23,7.99c0,0,0-0.01,0.01-0.01c0.02-0.02,0.02-0.02,0.04,0
			C6.29,7.99,6.3,8,6.31,8.01C6.32,8,6.33,7.99,6.33,7.99C6.31,7.97,6.29,7.96,6.27,7.94C6.28,7.93,6.29,7.92,6.29,7.92z M6.98,8.12
			C6.95,8.11,6.93,8.1,6.9,8.11C6.87,8.11,6.86,8.13,6.86,8.16c0,0.02,0.02,0.03,0.03,0.04c0.01,0,0.03,0.01,0.04,0.01
			c0.01,0,0.01,0.01,0.01,0.01c0,0-0.01,0.01-0.01,0.01c-0.01,0-0.01,0-0.02,0c-0.01,0-0.03-0.01-0.04-0.01
			C6.86,8.23,6.86,8.24,6.85,8.25c0.03,0.02,0.07,0.03,0.1,0.02c0.02-0.01,0.03-0.02,0.03-0.04c0-0.02-0.01-0.03-0.03-0.04
			c-0.01,0-0.01,0-0.02-0.01c-0.01,0-0.02-0.01-0.03-0.01C6.9,8.17,6.9,8.16,6.9,8.15c0-0.01,0.01-0.01,0.02-0.01
			c0.01,0,0.02,0,0.04,0.01c0.01,0,0.01,0,0.02,0.01C6.97,8.14,6.98,8.13,6.98,8.12z M6.43,7.98c0,0.01,0,0.01,0,0.01
			c0,0.04,0,0.09-0.01,0.13c0,0.03,0,0.03,0.02,0.04c0.01,0,0.01,0,0.02,0C6.49,8.14,6.51,8.12,6.53,8.1
			c0.02-0.02,0.03-0.03,0.05-0.05c-0.01,0-0.02-0.01-0.03-0.01c0,0-0.01,0-0.01,0C6.52,8.06,6.5,8.08,6.48,8.1
			c0,0.01-0.01,0.01-0.02,0.02c0-0.01,0-0.01,0-0.02c0-0.03,0-0.05,0.01-0.08c0-0.03,0-0.03-0.02-0.04
			C6.44,7.98,6.44,7.98,6.43,7.98z M7.07,8.1C7.08,8.15,7.09,8.2,7.1,8.26c0.01,0,0.02,0,0.04-0.01C7.13,8.2,7.12,8.15,7.11,8.1
			c0,0-0.01-0.01-0.01,0C7.09,8.09,7.09,8.09,7.07,8.1z"/>
		<path d="M6.83,6.89c0,0.01,0,0.01,0,0.02c0,0.1,0,0.2,0,0.3c0,0.09,0,0.18,0,0.28c0,0.01,0,0.02,0.01,0.02c0.1,0,0.2,0,0.31,0
			c0.01,0,0.01,0,0.01-0.01c0-0.04,0-0.08,0-0.12c0-0.15,0-0.31,0-0.46c0-0.01,0-0.01-0.01-0.01c-0.08,0-0.16,0-0.23,0
			C6.88,6.89,6.85,6.89,6.83,6.89z M6.75,7.5c0-0.01,0-0.02,0-0.02c0-0.17,0-0.35,0-0.52c0-0.02,0-0.04,0-0.06c0,0,0-0.01-0.01-0.01
			c-0.02,0-0.05,0-0.07,0.01C6.63,6.93,6.61,6.96,6.61,7.01c0,0.13,0,0.25,0,0.38c0,0.03,0.01,0.06,0.04,0.08
			C6.68,7.5,6.71,7.51,6.75,7.5z M7.23,7.5c0.03,0,0.07,0,0.09-0.02c0.03-0.03,0.05-0.06,0.05-0.1c0-0.12,0-0.25,0-0.37
			c0-0.02,0-0.04-0.01-0.06C7.33,6.91,7.29,6.89,7.24,6.89c-0.01,0-0.01,0-0.01,0.01c0,0.02,0,0.04,0,0.06c0,0.17,0,0.34,0,0.52
			C7.23,7.49,7.23,7.49,7.23,7.5z M6.53,7.14C6.46,7.09,6.39,7.05,6.32,7.01C6.29,7,6.27,6.98,6.24,6.99C6.22,7,6.2,7.01,6.18,7.01
			c0,0.01,0.01,0.01,0.01,0.02C6.23,7.09,6.27,7.14,6.3,7.2c0,0.01,0.01,0,0.01,0c0.05-0.01,0.09-0.03,0.14-0.04
			C6.48,7.15,6.5,7.15,6.53,7.14z M6.57,7.17c-0.01,0-0.01,0-0.02,0C6.5,7.19,6.45,7.21,6.4,7.22C6.36,7.23,6.31,7.25,6.27,7.26
			c0,0-0.01,0.01-0.01,0.01c0,0,0.01,0,0.01,0c0.04,0.01,0.07,0.01,0.11,0.02C6.42,7.3,6.47,7.31,6.51,7.32
			c0.02,0,0.04,0.01,0.06,0.01C6.57,7.27,6.57,7.22,6.57,7.17z M7.41,7.07C7.41,7.07,7.41,7.07,7.41,7.07
			C7.47,7.03,7.52,7,7.57,6.97C7.59,6.96,7.6,6.95,7.61,6.93c0.01-0.01,0.01-0.03,0-0.04C7.6,6.88,7.58,6.87,7.57,6.88
			C7.53,6.88,7.5,6.89,7.47,6.9C7.44,6.91,7.42,6.92,7.39,6.93C7.42,6.97,7.41,7.02,7.41,7.07z M6.99,6.73
			C6.99,6.73,6.99,6.73,6.99,6.73c-0.02,0-0.04,0-0.07,0c-0.03,0-0.05,0.02-0.06,0.05c0,0.02,0,0.04,0,0.06c0,0,0,0.01,0.01,0.01
			c0.01,0,0.02,0,0.03,0c0,0,0-0.01,0-0.01c0-0.01,0-0.02,0-0.03c0-0.02,0.01-0.03,0.03-0.03c0.03,0,0.06,0,0.09,0
			c0.03,0,0.04,0.01,0.04,0.04c0,0.04,0,0.04,0.04,0.03c0,0,0,0,0,0c0.01,0,0.01,0,0.01-0.01c0-0.01,0-0.03,0-0.04
			c0-0.04-0.03-0.06-0.07-0.07C7.03,6.73,7.01,6.73,6.99,6.73z M6.84,7.59c0-0.03-0.02-0.05-0.05-0.05c-0.03,0-0.05,0.02-0.05,0.05
			c0,0.03,0.02,0.05,0.05,0.05C6.81,7.64,6.84,7.61,6.84,7.59z M7.19,7.54c-0.03,0-0.05,0.02-0.05,0.05c0,0.03,0.02,0.05,0.05,0.05
			c0.03,0,0.05-0.02,0.05-0.05C7.24,7.56,7.22,7.54,7.19,7.54z"/>
		<path d="M7.52,7.89c0.01-0.01,0.02-0.02,0.03-0.02c0.03,0.04,0.07,0.08,0.1,0.12C7.63,8.01,7.62,8.01,7.6,8.01
			C7.57,8,7.54,7.99,7.51,7.99c0,0,0,0-0.01,0c0.02,0.03,0.04,0.05,0.06,0.08C7.55,8.07,7.54,8.08,7.53,8.09
			C7.5,8.04,7.46,8,7.43,7.96c0.01-0.01,0.02-0.01,0.02-0.02c0,0,0.01,0,0.01,0C7.5,7.95,7.53,7.95,7.55,7.96c0.01,0,0.01,0,0.02,0
			C7.56,7.94,7.54,7.91,7.52,7.89z"/>
		<path d="M7.32,8.19c-0.05,0-0.08-0.04-0.08-0.08c0-0.05,0.04-0.09,0.1-0.09c0.05,0,0.08,0.04,0.08,0.08
			C7.42,8.15,7.38,8.19,7.32,8.19z M7.28,8.11c0,0.03,0.02,0.05,0.05,0.05c0.03,0,0.05-0.02,0.05-0.05c0-0.03-0.02-0.05-0.05-0.05
			C7.3,8.06,7.28,8.08,7.28,8.11z"/>
		<path d="M6.29,7.92C6.29,7.92,6.28,7.93,6.27,7.94c0.02,0.02,0.04,0.03,0.06,0.04C6.33,7.99,6.32,8,6.31,8.01
			C6.3,8,6.29,7.99,6.28,7.98c-0.02-0.02-0.02-0.02-0.04,0c0,0,0,0-0.01,0.01C6.26,8.01,6.28,8.03,6.3,8.04
			C6.29,8.05,6.29,8.06,6.28,8.07c-0.03-0.03-0.07-0.05-0.1-0.08c0.03-0.04,0.07-0.08,0.1-0.12c0.03,0.02,0.06,0.05,0.09,0.07
			C6.37,7.95,6.36,7.96,6.36,7.96C6.34,7.95,6.32,7.93,6.29,7.92z"/>
		<path d="M6.98,8.12C6.98,8.13,6.97,8.14,6.97,8.15c-0.01,0-0.01-0.01-0.02-0.01c-0.01,0-0.02-0.01-0.04-0.01
			c-0.01,0-0.02,0-0.02,0.01c0,0.01,0.01,0.01,0.01,0.02c0.01,0,0.02,0.01,0.03,0.01c0.01,0,0.01,0,0.02,0.01
			c0.02,0.01,0.03,0.02,0.03,0.04c0,0.02-0.01,0.04-0.03,0.04c-0.04,0.01-0.07,0.01-0.1-0.02c0.01-0.01,0.01-0.02,0.02-0.02
			C6.88,8.23,6.9,8.24,6.91,8.24c0.01,0,0.02,0,0.02,0c0.01,0,0.01-0.01,0.01-0.01c0,0-0.01-0.01-0.01-0.01
			C6.92,8.21,6.91,8.21,6.89,8.2C6.87,8.19,6.86,8.18,6.86,8.16c0-0.03,0.01-0.05,0.04-0.05C6.93,8.1,6.95,8.11,6.98,8.12z"/>
		<path d="M6.43,7.98c0.01,0,0.01,0,0.02,0.01C6.47,8,6.47,8,6.47,8.02c0,0.03,0,0.05-0.01,0.08c0,0,0,0.01,0,0.02
			C6.47,8.11,6.47,8.11,6.48,8.1C6.5,8.08,6.52,8.06,6.54,8.04c0,0,0.01,0,0.01,0c0.01,0,0.02,0.01,0.03,0.01
			C6.56,8.07,6.55,8.08,6.53,8.1C6.51,8.12,6.49,8.14,6.47,8.16c-0.01,0.01-0.01,0.01-0.02,0C6.42,8.15,6.42,8.15,6.42,8.13
			c0-0.04,0-0.09,0.01-0.13C6.43,7.99,6.43,7.99,6.43,7.98z"/>
		<path d="M7.07,8.1c0.01,0,0.02,0,0.03-0.01c0,0,0.01,0,0.01,0c0.01,0.05,0.02,0.1,0.03,0.15c-0.01,0-0.03,0-0.04,0.01
			C7.09,8.2,7.08,8.15,7.07,8.1z"/>
		<path class="st1" d="M6.83,6.89c0.03,0,0.05,0,0.08,0c0.08,0,0.16,0,0.23,0c0.01,0,0.01,0,0.01,0.01c0,0.15,0,0.31,0,0.46
			c0,0.04,0,0.08,0,0.12c0,0.01,0,0.01-0.01,0.01c-0.1,0-0.2,0-0.31,0c-0.01,0-0.01-0.01-0.01-0.02c0-0.09,0-0.18,0-0.28
			c0-0.1,0-0.2,0-0.3C6.83,6.9,6.83,6.9,6.83,6.89z"/>
		<path class="st1" d="M6.75,7.5c-0.04,0-0.07,0-0.1-0.03C6.62,7.45,6.61,7.43,6.61,7.39c0-0.13,0-0.25,0-0.38
			c0-0.05,0.02-0.08,0.06-0.11c0.02-0.01,0.05-0.01,0.07-0.01c0,0,0.01,0.01,0.01,0.01c0,0.02,0,0.04,0,0.06c0,0.17,0,0.35,0,0.52
			C6.75,7.49,6.75,7.5,6.75,7.5z"/>
		<path class="st1" d="M7.23,7.5c0-0.01,0-0.02,0-0.03c0-0.17,0-0.34,0-0.52c0-0.02,0-0.04,0-0.06c0-0.01,0-0.01,0.01-0.01
			c0.05,0,0.09,0.01,0.12,0.06c0.01,0.02,0.01,0.04,0.01,0.06c0,0.12,0,0.25,0,0.37c0,0.04-0.01,0.07-0.05,0.1
			C7.29,7.5,7.26,7.51,7.23,7.5z"/>
		<path class="st1" d="M6.53,7.14C6.5,7.15,6.48,7.15,6.46,7.16C6.41,7.17,6.36,7.19,6.32,7.2c-0.01,0-0.01,0-0.01,0
			C6.27,7.14,6.23,7.09,6.19,7.03c0,0-0.01-0.01-0.01-0.02C6.2,7.01,6.22,7,6.24,6.99c0.03-0.01,0.05,0,0.07,0.02
			C6.39,7.05,6.46,7.09,6.53,7.14z"/>
		<path class="st1" d="M6.57,7.17c0,0.05,0,0.1,0,0.15c-0.02,0-0.04-0.01-0.06-0.01C6.47,7.31,6.42,7.3,6.38,7.29
			C6.34,7.29,6.31,7.28,6.27,7.28c0,0-0.01,0-0.01,0c0,0,0.01-0.01,0.01-0.01C6.31,7.25,6.36,7.23,6.4,7.22
			c0.05-0.02,0.1-0.03,0.15-0.05C6.56,7.17,6.56,7.17,6.57,7.17z"/>
		<path class="st1" d="M7.41,7.07c0-0.05,0.01-0.1-0.02-0.14C7.42,6.92,7.44,6.91,7.47,6.9c0.03-0.01,0.06-0.02,0.1-0.03
			c0.02,0,0.03,0,0.04,0.01c0.01,0.01,0.01,0.03,0,0.04C7.6,6.95,7.59,6.96,7.57,6.97C7.52,7,7.47,7.03,7.41,7.07
			C7.41,7.07,7.41,7.07,7.41,7.07z"/>
		<path class="st1" d="M6.99,6.73c0.02,0,0.04,0,0.06,0c0.04,0,0.06,0.03,0.07,0.07c0,0.01,0,0.03,0,0.04c0,0.01,0,0.01-0.01,0.01
			c0,0,0,0,0,0c-0.04,0-0.04,0-0.04-0.03c0-0.03-0.01-0.04-0.04-0.04c-0.03,0-0.06,0-0.09,0c-0.02,0-0.03,0.01-0.03,0.03
			c0,0.01,0,0.02,0,0.03c0,0,0,0.01,0,0.01c-0.01,0-0.02,0-0.03,0c0,0-0.01,0-0.01-0.01c0-0.02,0-0.04,0-0.06
			c0.01-0.03,0.03-0.05,0.06-0.05C6.94,6.73,6.97,6.73,6.99,6.73C6.99,6.73,6.99,6.73,6.99,6.73z"/>
		<path class="st1" d="M6.84,7.59c0,0.02-0.02,0.05-0.05,0.05c-0.03,0-0.05-0.02-0.05-0.05c0-0.02,0.02-0.05,0.05-0.05
			C6.82,7.54,6.83,7.56,6.84,7.59z"/>
		<path class="st1" d="M7.19,7.54c0.03,0,0.05,0.02,0.05,0.05c0,0.02-0.02,0.05-0.05,0.05c-0.03,0-0.05-0.02-0.05-0.05
			C7.15,7.56,7.17,7.54,7.19,7.54z"/>
	</g>
	<text transform="matrix(1.333 0.4669 -0.3306 0.9438 6.5362 8.1936)" class="st2 st3">A</text>
</g>
</svg>
